<?xml version="1.0" ?><svg enable-background="new 0 0 32 32" version="1.1" viewBox="0 0 32 32" xml:space="preserve" xmlns="http://www.w3.org/2000/svg" xmlns:xlink="http://www.w3.org/1999/xlink"><g id="Filled"><g><g><rect fill="#FFFFFF" height="12.609" width="12.609" x="9.695" y="1"/></g><g><path d="M21.304,2.001v10.609H10.696V2.001H21.304 M23.304,0.001H8.696v14.609h14.609V0.001L23.304,0.001z"/></g></g><g><g><rect fill="#DDDDDD" height="12.609" width="12.609" x="1" y="18.532"/></g><g><path d="M12.609,19.532v10.609H2V19.532H12.609 M14.609,17.532H0v14.609h14.609V17.532L14.609,17.532z"/></g></g><g><g><rect fill="#6FD4F7" height="12.609" width="12.608" x="18.392" y="18.532"/></g><g><path d="M30,19.532v10.609H19.391V19.532H30 M32,17.532H17.391v14.609H32V17.532L32,17.532z"/></g></g><g><path d="M8.756,27.955H4.439l0.192-0.956l2.141-1.901c0.538-0.476,0.91-0.856,1.115-1.143c0.204-0.285,0.307-0.554,0.307-0.805    c0-0.225-0.062-0.396-0.184-0.514c-0.123-0.118-0.287-0.178-0.493-0.178c-0.198,0-0.4,0.051-0.608,0.15    c-0.208,0.101-0.464,0.277-0.77,0.532l-0.655-0.911c0.396-0.335,0.772-0.573,1.131-0.716c0.359-0.142,0.732-0.213,1.122-0.213    c0.568,0,1.019,0.146,1.351,0.439s0.498,0.681,0.498,1.162c0,0.32-0.062,0.621-0.185,0.902c-0.122,0.28-0.306,0.562-0.55,0.843    c-0.243,0.281-0.642,0.647-1.195,1.1l-1.207,0.996v0.045h2.549L8.756,27.955z"/></g><g><path d="M27.041,22.8c0,0.467-0.142,0.859-0.424,1.176c-0.283,0.317-0.674,0.52-1.173,0.605V24.6    c0.392,0.077,0.688,0.237,0.89,0.478c0.202,0.241,0.304,0.542,0.304,0.904c0,0.397-0.111,0.753-0.332,1.067    c-0.222,0.314-0.539,0.559-0.951,0.733c-0.413,0.175-0.902,0.263-1.468,0.263c-0.715,0-1.293-0.118-1.736-0.354v-1.198    c0.252,0.15,0.523,0.263,0.816,0.339c0.294,0.076,0.579,0.114,0.857,0.114c0.473,0,0.836-0.095,1.09-0.285    c0.255-0.189,0.382-0.453,0.382-0.791c0-0.515-0.386-0.771-1.157-0.771h-0.619l0.206-0.992h0.327c0.5,0,0.894-0.093,1.181-0.277    c0.287-0.186,0.431-0.443,0.431-0.772c0-0.2-0.064-0.355-0.193-0.467c-0.129-0.11-0.31-0.166-0.543-0.166    c-0.4,0-0.83,0.15-1.287,0.449l-0.57-0.915c0.371-0.242,0.719-0.412,1.043-0.51c0.325-0.097,0.693-0.146,1.106-0.146    c0.568,0,1.014,0.136,1.337,0.406S27.041,22.343,27.041,22.8z"/></g><g><path d="M16.239,10.372h-1.368l0.808-3.719c0.104-0.455,0.218-0.884,0.341-1.288C15.992,5.39,15.9,5.46,15.743,5.576    s-0.55,0.371-1.178,0.763l-0.597-0.965l2.54-1.562h1.117L16.239,10.372z"/></g></g></svg>