<?xml version="1.0" ?><!DOCTYPE svg  PUBLIC '-//W3C//DTD SVG 1.1//EN'  'http://www.w3.org/Graphics/SVG/1.1/DTD/svg11.dtd'><svg height="100%" style="fill-rule:evenodd;clip-rule:evenodd;stroke-linejoin:round;stroke-miterlimit:2;" version="1.1" viewBox="0 0 64 64" width="100%" xml:space="preserve" xmlns="http://www.w3.org/2000/svg" xmlns:serif="http://www.serif.com/" xmlns:xlink="http://www.w3.org/1999/xlink"><g transform="matrix(1,0,0,1,-160,0)"><g id="vkontakte-vk-apps-platform" transform="matrix(1,0,0,1,160,7.10543e-15)"><rect height="64" style="fill:none;" width="64" x="0" y="0"/><g transform="matrix(1.47368,0,0,1.47368,-249.474,-15.1579)"><path d="M194,30L197,30C200.866,30 204,26.866 204,23C204,22.885 204,22.777 204,22.679C204,22.304 204.304,22 204.679,22C205.833,22 208.167,22 209.321,22C209.501,22 209.674,22.071 209.801,22.199C209.929,22.326 210,22.499 210,22.679C210,22.777 210,22.884 210,23C210,26.448 208.63,29.754 206.192,32.192C206.104,32.281 206.015,32.367 205.925,32.453C208.411,34.47 210,37.549 210,41C210,41.116 210,41.223 210,41.321C210,41.501 209.929,41.674 209.801,41.801C209.674,41.929 209.501,42 209.321,42L204.679,42C204.499,42 204.326,41.929 204.199,41.801C204.071,41.674 204,41.501 204,41.321C204,41.222 204,41.115 204,41C204,38.239 201.761,36 199,36L194,36L194,41C194,41.265 193.895,41.52 193.707,41.707C193.52,41.895 193.265,42 193,42L191,42C180.507,42 172,33.493 172,23L172,22L178,22L178,23C178,26.448 179.37,29.754 181.808,32.192C183.525,33.91 185.674,35.098 188,35.649L188,23C188,22.735 188.105,22.48 188.293,22.293C188.48,22.105 188.735,22 189,22C190.11,22 191.89,22 193,22C193.265,22 193.52,22.105 193.707,22.293C193.895,22.48 194,22.735 194,23L194,30Z" style="fill:rgb(87,183,235);"/></g><g transform="matrix(1,0,0,1,-160,-7.10543e-15)"><path d="M164.04,17.983C164.823,32.744 177.042,44.474 192,44.474L194.947,44.474C195.338,44.474 195.713,44.318 195.989,44.042C196.266,43.766 196.421,43.391 196.421,43L196.421,35.632L203.789,35.632C207.859,35.632 211.158,38.931 211.158,43C211.158,43.169 211.158,43.328 211.158,43.474C211.158,43.739 211.263,43.993 211.451,44.181C211.638,44.368 211.893,44.474 212.158,44.474L219,44.474C219.265,44.474 219.52,44.368 219.707,44.181C219.809,44.078 219.887,43.956 219.937,43.823C219.979,44.298 220,44.778 220,45.263C220,45.434 220,45.592 220,45.737C220,46.002 219.895,46.256 219.707,46.444C219.52,46.631 219.265,46.737 219,46.737L212.158,46.737C211.893,46.737 211.638,46.631 211.451,46.444C211.263,46.256 211.158,46.002 211.158,45.737C211.158,45.591 211.158,45.432 211.158,45.263C211.158,41.194 207.859,37.895 203.789,37.895L196.421,37.895L196.421,45.263C196.421,45.654 196.266,46.029 195.989,46.305C195.713,46.582 195.338,46.737 194.947,46.737L192,46.737C176.536,46.737 164,34.201 164,18.737L164,18.263C164,18.167 164.014,18.073 164.04,17.983Z" style="fill:rgb(72,145,211);"/></g><g transform="matrix(1.47368,0,0,1.47368,-249.474,-15.1579)"><path d="M194.339,29.661L197,29.661C200.679,29.661 203.661,26.679 203.661,23C203.661,22.885 203.661,22.777 203.661,22.679C203.661,22.116 204.116,21.661 204.679,21.661C205.833,21.661 208.167,21.661 209.321,21.661C209.591,21.661 209.85,21.768 210.041,21.959C210.232,22.15 210.339,22.409 210.339,22.679C210.339,22.777 210.339,22.884 210.339,23C210.339,26.538 208.934,29.931 206.432,32.432L206.43,32.434C208.825,34.513 210.339,37.58 210.339,41C210.339,41.116 210.339,41.223 210.339,41.321C210.339,41.591 210.232,41.85 210.041,42.041C209.85,42.232 209.591,42.339 209.321,42.339C208.167,42.339 205.833,42.339 204.679,42.339C204.409,42.339 204.15,42.232 203.959,42.041C203.768,41.85 203.661,41.591 203.661,41.321C203.661,41.222 203.661,41.115 203.661,41C203.661,38.426 201.574,36.339 199,36.339L194.339,36.339L194.339,41C194.339,41.355 194.198,41.696 193.947,41.947C193.696,42.198 193.355,42.339 193,42.339L191,42.339C180.319,42.339 171.661,33.681 171.661,23L171.661,22C171.661,21.813 171.813,21.661 172,21.661L178,21.661C178.187,21.661 178.339,21.813 178.339,22L178.339,23C178.339,26.358 179.673,29.578 182.048,31.952C183.617,33.522 185.556,34.637 187.661,35.212L187.661,23C187.661,22.645 187.802,22.304 188.053,22.053C188.304,21.802 188.645,21.661 189,21.661C190.11,21.661 191.89,21.661 193,21.661C193.355,21.661 193.696,21.802 193.947,22.053C194.198,22.304 194.339,22.645 194.339,23L194.339,29.661ZM172.339,22.339L172.339,23C172.339,33.306 180.694,41.661 191,41.661L192,41.661C192,41.661 192.187,42 192,41.661L193,41.661C193.175,41.661 193.343,41.591 193.467,41.467C193.591,41.343 193.661,41.175 193.661,41L193.661,36C193.661,35.813 193.813,35.661 194,35.661L199,35.661C201.949,35.661 204.339,38.051 204.339,41C204.339,41.115 204.339,41.222 204.339,41.321C204.339,41.411 204.375,41.498 204.439,41.561C204.502,41.625 204.589,41.661 204.679,41.661C205.833,41.661 208.167,41.661 209.321,41.661C209.411,41.661 209.498,41.625 209.561,41.561C209.625,41.498 209.661,41.411 209.661,41.321C209.661,41.223 209.661,41.116 209.661,41C209.661,37.656 208.121,34.671 205.711,32.716C205.635,32.654 205.589,32.563 205.586,32.465C205.582,32.368 205.621,32.273 205.692,32.206C205.779,32.123 205.867,32.038 205.952,31.952C208.327,29.578 209.661,26.358 209.661,23C209.661,22.884 209.661,22.777 209.661,22.679C209.661,22.589 209.625,22.502 209.561,22.439C209.498,22.375 209.411,22.339 209.321,22.339C208.167,22.339 205.833,22.339 204.679,22.339C204.491,22.339 204.339,22.491 204.339,22.679C204.339,22.777 204.339,22.885 204.339,23C204.339,27.053 201.053,30.339 197,30.339L194,30.339C193.813,30.339 193.661,30.187 193.661,30C193.661,30 193.661,23 193.661,23C193.661,22.825 193.591,22.657 193.467,22.533C193.343,22.409 193.175,22.339 193,22.339C191.89,22.339 190.11,22.339 189,22.339C188.825,22.339 188.657,22.409 188.533,22.533C188.409,22.657 188.339,22.825 188.339,23L188.339,35.649C188.339,35.753 188.292,35.851 188.21,35.915C188.129,35.98 188.023,36.003 187.922,35.979C185.535,35.413 183.33,34.195 181.568,32.432C179.066,29.931 177.661,26.538 177.661,23L177.661,22.339L172.339,22.339Z"/></g></g></g></svg>